<svg width="80" height="70" viewBox="0 0 80 70" fill="none" xmlns="http://www.w3.org/2000/svg">
<path fill-rule="evenodd" clip-rule="evenodd" d="M39.586 0.1641C46.5013 -0.481917 53.4428 0.783945 59.6588 3.88233C66.3565 7.22082 72.7177 11.7697 76.1799 18.4044C79.7262 25.2004 81.183 33.4496 78.9076 40.7698C76.7376 47.7513 69.5099 51.3987 64.3228 56.5508C59.5797 61.2619 56.2602 68.2127 49.7498 69.731C43.2873 71.2381 37.4822 65.7893 31.0111 64.3196C23.953 62.7165 15.6826 65.2529 10.0453 60.7134C4.2552 56.0508 2.84241 47.9055 1.53918 40.5865C0.200779 33.07 -1.50904 24.6819 2.46914 18.1655C6.3879 11.7465 15.02 10.7021 21.7869 7.42026C27.6709 4.56653 33.0748 0.772366 39.586 0.1641Z" fill="#5544FF"/>
</svg>
