<svg width="81" height="83" viewBox="0 0 81 83" fill="none" xmlns="http://www.w3.org/2000/svg">
<g filter="url(#filter0_d_1_7422)">
<path fill-rule="evenodd" clip-rule="evenodd" d="M65.9565 0H65.9565V5.43505C68.9573 5.43505 71.39 7.867 71.3913 10.8675C71.3926 7.867 73.8253 5.43505 76.8261 5.43505C73.8285 5.43505 71.3977 3.0082 71.3913 0.0120896C71.3848 3.00808 68.9541 5.43478 65.9565 5.43478V0ZM71.3913 0V0.00026537H76.8261L76.8261 0H71.3913Z" fill="#EB5555"/>
<path fill-rule="evenodd" clip-rule="evenodd" d="M14.326 29.348V29.3479H4V39.6743C9.70256 39.6746 14.3253 44.2975 14.3255 50.0001H14.326C14.3261 44.2973 18.9492 39.6743 24.6521 39.6743V50.0001H24.6522V29.3479H24.6521V39.674C18.9676 39.674 14.3558 35.0806 14.3261 29.4031C14.2965 35.0807 9.68476 39.6741 4.00019 39.6741V29.348H14.326Z" fill="#EB5555"/>
<path d="M6.17392 17.4348C6.17392 10.8074 11.5465 5.43481 18.1739 5.43481H56.1304C62.7579 5.43481 68.1304 10.8074 68.1304 17.4348V26.087H6.17392V17.4348Z" fill="#FFBA4A"/>
<path d="M32.2609 17.4348C32.2609 10.8074 37.6335 5.43481 44.2609 5.43481H56.1304C62.7578 5.43481 68.1304 10.8074 68.1304 17.4348V64.1305H32.2609V17.4348Z" fill="#FFBA4A"/>
<path d="M6.17392 17.4348C6.17392 10.8074 11.5465 5.43481 18.1739 5.43481H20.2609C26.8883 5.43481 32.2609 10.8074 32.2609 17.4348V26.087H6.17392V17.4348Z" fill="#C99035"/>
<rect x="40.9565" y="20.6521" width="33.6957" height="4.8913" fill="#993280"/>
<rect x="40.9565" y="30.4348" width="33.6957" height="4.8913" fill="#A03C7D"/>
<rect x="40.9565" y="40.2173" width="22.8261" height="4.8913" fill="#A03C7D"/>
<path d="M43.1304 74.9999V64.1304H51.8261V74.9999L47.4783 70.6521L43.1304 74.9999Z" fill="#993280"/>
<circle cx="47.4783" cy="59.7827" r="6.52174" fill="#EB5555"/>
</g>
<defs>
<filter id="filter0_d_1_7422" x="0" y="0" width="80.8261" height="83" filterUnits="userSpaceOnUse" color-interpolation-filters="sRGB">
<feFlood flood-opacity="0" result="BackgroundImageFix"/>
<feColorMatrix in="SourceAlpha" type="matrix" values="0 0 0 0 0 0 0 0 0 0 0 0 0 0 0 0 0 0 127 0" result="hardAlpha"/>
<feOffset dy="4"/>
<feGaussianBlur stdDeviation="2"/>
<feComposite in2="hardAlpha" operator="out"/>
<feColorMatrix type="matrix" values="0 0 0 0 0 0 0 0 0 0 0 0 0 0 0 0 0 0 0.25 0"/>
<feBlend mode="normal" in2="BackgroundImageFix" result="effect1_dropShadow_1_7422"/>
<feBlend mode="normal" in="SourceGraphic" in2="effect1_dropShadow_1_7422" result="shape"/>
</filter>
</defs>
</svg>
