<svg width="512" height="512" viewBox="0 0 512 512" fill="none" xmlns="http://www.w3.org/2000/svg">
<path d="M509.805 505.079L510.003 509.972C508.115 509.958 506.066 510.098 504.205 509.81L509.805 505.079Z" fill="#E8D58F"/>
<path d="M2.27779 507.103C1.79022 501.424 2.02416 495.613 2.02201 489.916L2.02872 410.358C2.05374 382.773 12.0186 358.741 36.0791 343.16C46.8425 336.189 59.2285 333.246 71.24 329.185L173.378 293.558C176.526 292.266 179.865 291.07 182.829 289.393C172.986 276.84 164.326 258.211 161.158 242.902C158.051 242.7 154.739 242.982 151.685 242.362C133.293 238.626 129.052 225.975 129.23 209.8L129.254 186.697C129.254 184.419 129.129 182.05 129.5 179.796L129.571 179.398C130.37 174.58 132.644 170.524 135.697 166.78L134.5 166.206C129.059 163.305 129.348 159.719 129.327 154.152L129.354 140.682C129.481 127.697 128.021 122.491 120.704 111.047C112.015 97.4591 113.535 91.4647 113.523 75.5573C113.518 69.9261 113.115 64.0039 114.151 58.4493C118.444 35.4421 141.973 22.038 163.47 33.9304L170.071 28.2575C191.501 11.9564 235.424 1.30417 260.875 2.24907C286.368 3.19552 324.313 14.3742 343.65 29.5989C349.33 34.0711 346.84 34.4932 351.812 32.4964C357.298 30.2935 362.787 28.5636 368.787 29.4229L372.023 29.8502C379.028 30.9526 386.415 35.7543 390.538 41.4781L392.362 44.041C397.141 51.4769 398.725 59.418 398.746 68.0552L398.754 78.264C398.746 96.7742 399.309 99.0065 389.537 114.203C383.879 123.002 382.237 130.747 382.197 141.121L382.163 154.58C382.144 156.974 382.258 159.54 381.887 161.906L381.83 162.25C381.409 165.326 378.976 166.341 376.197 167.066L377.345 168.247C382.39 174.034 383.233 179.6 383.251 186.869L383.265 199.039C383.266 212.843 385.216 226.725 373.207 236.64C366.952 241.805 359.28 243.196 351.37 242.451C350.37 245.347 349.946 248.457 348.995 251.392C344.549 265.106 338.46 277.952 329.606 289.389C341.515 295.241 353.924 299.772 366.426 304.16L459.5 335.242C478.562 340.955 497.446 360.163 504.836 378.545C509.474 390.082 509.973 400.761 509.98 412.903L509.911 505.079L504.205 509.765L500.537 509.971L441.446 509.893L435.543 509.801L344.349 510.002L302.906 509.907C302.589 509.754 302.767 509.797 302.329 509.823L294.353 509.754L218.69 509.923C216.839 509.372 212.641 509.924 210.487 509.787L166.533 510.009L76.9558 509.889L70.9795 509.83L15.3855 509.963L7.93686 509.621C6.12756 508.701 4.20479 507.428 2.27779 507.103ZM158.095 103.879L157 103.243C154.209 101.674 151.381 99.2389 149.468 96.7162L148.142 94.9722C140.623 84.4345 143.605 71.0992 149.947 60.8254C152.568 56.58 156.236 52.0915 161.251 50.8884C158.537 49.1339 156.021 47.2967 153.12 45.8411C144.406 41.4684 134.984 47.5997 131.254 55.6249C128 62.6256 127.801 84.091 129.107 92.4799L129.289 93.5516C129.632 95.9066 130.961 98.3147 132.104 100.369L137.14 109.088C147.192 126.966 144.814 136.701 145.729 156.537L146.225 156.469C149.961 155.974 154.715 155.852 158.42 156.499L158.095 103.879ZM351.802 49.8682L352.186 49.995C357.344 51.6216 361.184 55.9827 363.701 60.7382L363.886 61.1133C367.175 67.5919 369.34 73.6511 368.87 81.0397C368.387 88.6461 363.389 103.088 354.25 102.018C353.954 102.627 353.987 103.25 353.959 103.897L354.076 155.934L366.99 156.136C366.85 137.959 365.923 125.187 375.037 109.047C377.856 104.054 381.736 99.0448 383.016 93.3688L383.123 92.8749C383.644 90.547 383.414 88.1942 383.363 85.8273L383.313 76.9912C383.315 72.4687 383.739 67.6809 383.3 63.1921L383.255 62.7499C382.471 54.2017 373.809 42.3744 364.034 44.1712C359.274 45.0462 356.032 47.8237 351.802 49.8682ZM299.742 367.375C296.482 368.506 293.658 370.68 290.856 372.639L268.875 387.759C269.644 388.608 271.083 389.242 272.079 389.848L280.784 395.021L298.424 405.247C299.614 396.48 299.851 387.571 300.449 378.748L300.899 372.375C301.051 370.696 302.312 366.946 299.742 367.375ZM210.159 365.313L213.928 404.294C215.766 403.577 217.405 402.55 219.136 401.614L228.629 396.38C229.869 395.696 231.189 394.755 232.487 394.229L242.632 388.452C233.766 381.209 220.315 371.015 210.159 365.313Z" fill="black"/>
<path d="M251.123 181.625C254.785 181.154 259.184 181.742 262.591 183.142C262.957 184.971 262.742 187.08 262.751 188.957L262.87 200.375C263.06 207.175 266.33 216.142 257.846 218.991C251.956 220.3 245.872 216.408 245.527 210.125C245.438 208.492 246.482 206.276 246.966 204.702C249.125 197.675 248.109 189.382 248.303 182.067C248.949 181.62 250.317 181.698 251.123 181.625Z" fill="#E8D1C4"/>
<path d="M153.749 172.875L154.625 172.764C161.78 175.425 159.199 186.046 159.207 192.882L159.37 226.609C156.612 226.804 153.815 226.602 151.135 225.928C144.585 223.049 144.468 218.443 144.466 212.298L144.472 203.037C144.477 198.993 143.323 182.995 145.376 180.128L145.558 179.877C147.571 176.914 150.293 174.066 153.749 172.875Z" fill="#E8D1C4"/>
<path d="M354.506 172.144C370.946 175.951 367.986 188.899 368.004 202.336C368.014 210.382 370.018 219.811 363.524 225.264C361.342 226.519 355.185 229.222 352.795 227.656C352.422 225.875 352.59 223.93 352.589 222.118L352.594 213.06C352.611 199.461 351.614 185.541 354.506 172.144Z" fill="#E8D1C4"/>
<path d="M285.536 166.102C288.508 165.79 291.837 166.313 294.857 166.339L311.633 166.388C315.38 166.392 319.523 166.04 323.189 166.864C325.604 171.61 325.067 184.568 325.084 189.826C325.107 197.159 327.337 205.052 318.562 205.754C310.912 206.689 293.166 206.926 285.291 206.138C278.251 205.433 278.483 202.683 278.462 196.826L278.46 177.287C278.483 170.709 277.897 166.768 285.536 166.102Z" fill="#E8D1C4"/>
<path d="M300.212 174.564C313.455 173.672 316.37 191.037 303.196 193.779C290.625 193.807 285.526 177.539 300.212 174.564Z" fill="black"/>
<path d="M192.176 166.355H215.327C219.516 166.35 224.068 165.985 228.193 166.616L228.625 166.686C234.965 167.655 232.543 175.365 232.524 180L232.433 201.025C230.874 203.496 229.057 204.859 226.38 205.918L225.82 206.083C224.223 206.477 222.43 206.352 220.793 206.352L212.392 206.343C207.627 206.335 187.213 208.399 185.959 202.458L185.696 201.091C184.919 195.301 185.148 178.409 185.896 172.96C186.549 168.204 187.327 166.802 192.176 166.355Z" fill="#E8D1C4"/>
<path d="M208.095 174.334C221.493 173.595 223.745 193.045 210.435 193.871C196.74 193.098 193.497 176.043 208.095 174.334Z" fill="black"/>
<path d="M206.84 315.351C211.028 317.09 214.997 319.388 219.046 321.42C247.225 335.561 267.794 332.763 294.415 320.037L300.701 317.118C301.95 316.603 303.078 316.505 304.261 315.735L303.681 346.023C302.149 347.335 295.668 350.876 293.289 352.539L256.286 378.396C247.923 373.344 240.175 367.405 232.169 361.834L218.462 352.262C215.035 349.825 211.425 347.302 208.416 344.365L206.84 315.351Z" fill="#E8D1C4"/>
<path d="M218.69 509.923L218.982 509.442C223.059 504.531 221.818 499.571 221.226 493.625L215.261 421.653L236.907 409.193C243.216 405.534 249.754 402.061 255.457 397.49L292.678 419.666C294.195 420.615 295.831 421.519 297.172 422.704L291.273 491.446C290.498 498.787 287.668 504.639 294.353 509.754L218.69 509.923Z" fill="#8AC6E8"/>
<path d="M337.21 210.66L337.292 224.059C337.287 241.164 334.841 251.856 326.015 266.954C313.952 287.588 294.636 305.255 271.935 313.311C241.071 324.264 206.171 297.505 189.816 273.366C179.538 257.903 174.48 243.131 174.48 224.751L174.476 210.933C181.824 223.139 195.315 221.717 207.56 221.737C215.916 221.751 226.055 223.015 233.884 219.38L234.036 219.688C237.089 225.862 240.399 231.037 247.306 233.317C258.78 237.105 271.831 231.397 275.666 219.692C284.548 222.574 294.863 221.756 304.096 221.751C317.918 221.744 327.653 222.762 337.21 210.66Z" fill="#E8D1C4"/>
<path d="M213.401 249.081C217.465 248.776 222.186 250.747 223.245 255.063L223.388 255.672C224.611 261.089 220.171 264.774 215.285 265.75C201.689 265.953 200.824 250.703 213.401 249.081Z" fill="black"/>
<path d="M295.543 248.574C309.12 247.735 312.573 263.154 299.123 265.688C285.796 266.154 282.524 251.041 295.543 248.574Z" fill="black"/>
<path d="M235.139 275.05L271.438 275.063C273.669 275.059 276.586 274.692 278.655 275.608C285.796 278.772 284.324 287.212 277.735 289.675C275.667 289.504 272.383 289.982 270.197 289.986L239.041 289.988C237.323 289.984 235.156 290.165 233.569 289.434L233.25 289.274C227.888 286.645 227.858 277.913 233.5 275.553L235.139 275.05Z" fill="black"/>
<path d="M272.916 246.343C283.753 244.785 286.156 261.012 272.408 263.061C266.318 263.969 244.548 264.06 238.194 263.129C226.743 260.843 227.916 247.786 235.75 246.757C240.246 246.166 245.258 247.988 249.802 248.218C254.363 248.448 259.129 248.61 263.667 247.991L272.916 246.343Z" fill="black"/>
<path d="M161.251 50.8887C166.045 52.8884 169.065 49.3504 172.119 46.1465C188.122 29.3581 217.07 22.9315 238.977 19.6507C243.263 19.0089 247.717 18.2358 252.047 18.0466C279.378 16.8525 317.114 27.2498 337.846 44.2253C344.1 49.3458 343.903 52.1803 351.802 49.8685L352.186 49.9953C357.344 51.6219 361.184 55.983 363.701 60.7385L363.886 61.1136C367.175 67.5922 369.34 73.6514 368.87 81.04C368.387 88.6464 363.389 103.088 354.25 102.018C353.954 102.627 353.987 103.25 353.817 103.897C353.906 87.997 340.042 91.3679 338.746 98.8229L338.698 99.1252C338.35 101.246 338.762 103.507 338.813 105.651L338.85 145.582C338.837 151.828 338.544 158.2 339.225 164.415C337.767 159.753 334.65 154.595 330.446 151.909L330.125 151.708C327.585 150.094 322.341 151.024 319.435 151.023L289.531 151.03C286.541 151.033 283.428 150.902 280.456 151.259L280 151.316C271.821 152.261 267.398 160.487 265.342 167.584C259.368 165.764 251.364 166.159 245.467 168.026C245.48 166.665 245.419 165.227 245.109 163.898C242.224 151.527 233.252 150.923 223.37 150.984L192 151.013C189.436 150.992 185.893 150.37 183.445 151.06C179.097 152.287 174.216 160.393 172.305 164.01L172.521 162.7C172.983 159.674 173.436 156.511 173.567 153.454L173.638 105.437C173.636 102.996 173.81 100.393 173.559 97.9692C173.028 92.8546 159.252 86.4869 158.095 103.879L157 103.243C154.209 101.674 151.381 99.2392 149.468 96.7165L148.142 94.9725C140.623 84.4348 143.605 71.0995 149.947 60.8257C152.568 56.5803 156.236 52.0918 161.251 50.8887Z" fill="#E8D1C4"/>
<path d="M168.714 312.874C173.178 310.009 183.416 305.154 188.096 304.09C190.192 307.751 190.403 311.869 190.559 315.997L190.789 329.241C190.868 332.471 191.236 335.817 191.521 339.043L196.119 380.612L205.394 488.453C206.159 497.168 203.413 503.143 210.487 509.787L166.533 510.009L76.956 509.889L70.9797 509.83L15.3857 509.963C16.072 508.945 16.5711 508.165 17.0039 507.114L17.1503 506.751C18.2317 504.176 17.8924 500.884 17.9012 498.13L17.9256 415.296C17.9699 391.968 23.036 369.175 44.1433 355.896C53.1603 350.224 64.3428 347.468 74.4293 344.222L142.719 321.414L160.312 316.306C163.183 315.328 165.856 313.854 168.714 312.874Z" fill="#4BAF32"/>
<path d="M154.036 337.443C156.5 334.823 159.296 332.495 161.624 329.77L166.842 323.042C169.455 319.385 172.485 313.328 177.375 312.502C177.99 312.398 178.262 312.491 178.812 312.121L179.125 311.877C181.002 311.848 183.168 311.895 185 312.377L185.418 312.539C187.808 313.18 187.757 315.147 188.363 317.25L188.125 317.5C187.749 316.663 187.213 315.509 187.039 314.641L187 314.375C186.218 313.55 185.654 313.27 184.557 313.034L184.374 313.489C187.511 317.775 178.707 326.904 174.313 323.472L173.913 323.61C171.367 321.76 169.385 329.869 168.756 331.731L168.329 331.83C167.919 332.773 167.515 333.677 166.985 334.561L166.97 334.56L165.18 337.945C163.563 336.574 161.574 336.457 159.559 336.185C157.581 337.09 156.181 337.318 154.036 337.443Z" fill="#4BAF32"/>
<path d="M161.294 334.798C162.167 333.488 162.76 332.148 164.131 331.218L164.5 331.012C165.681 330.333 166.9 329.995 168.123 330.875L168.329 331.83C167.919 332.773 167.515 333.677 166.985 334.561L166.97 334.56L165.18 337.945C163.563 336.574 161.574 336.457 159.559 336.185L161.294 334.798Z" fill="#4BAF32"/>
<path d="M161.294 334.798C163.273 334.763 164.779 333.457 166.689 334.165L166.97 334.56L165.18 337.945C163.563 336.574 161.574 336.457 159.559 336.185L161.294 334.798Z" fill="#4BAF32"/>
<path d="M70.9797 509.83L68.4984 507.756C67.5661 506.884 66.8916 505.843 66.2536 504.75L66.0935 504.494C64.6957 502.126 65.718 491.637 65.7182 488.455L65.7237 474.514C65.7276 472.405 65.4153 469.637 65.9806 467.625C68.3441 459.215 80.6124 458.201 81.3564 467.917C81.8813 474.771 81.5023 481.908 81.5107 488.789L81.5238 498.659C81.5523 503.887 81.6085 506.543 76.956 509.76L70.9797 509.83Z" fill="black"/>
<path d="M159.559 336.185C161.574 336.457 163.563 336.574 165.18 337.945L161.486 344.252C160.486 345.953 160.942 348.768 160.296 350.739C158.539 356.093 151.764 360.809 147.624 364.368L164.25 372.982C174.055 378.196 199.236 388.158 179.61 399.296L156.307 411.129C152.567 413.116 148.981 415.34 145.53 417.794C148.182 423.218 150.191 428.956 152.602 434.495C154.032 437.779 156.283 441.268 157.161 444.724C158.562 450.239 153.318 454.443 148.435 455.09C141.839 452.771 141.325 444.498 138.951 438.746L130.242 420.246C129.494 418.683 128.519 416.915 128.234 415.204L128.187 414.875C127.162 408.344 141.45 402.107 145.97 399.446C151.13 396.407 156.26 393.136 161.591 390.415C157.477 388.335 153.823 385.487 149.865 383.135C143.316 379.244 131.267 374.806 127.437 367.876L127.927 366.381C130.599 359.726 148.632 339.692 154.036 337.443C156.181 337.318 157.581 337.09 159.559 336.185Z" fill="black"/>
<path d="M168.714 312.874C173.178 310.009 183.416 305.154 188.096 304.09C190.192 307.751 190.403 311.869 190.559 315.997L190.789 329.241C190.868 332.471 191.236 335.817 191.521 339.043L196.119 380.612L205.394 488.453C206.159 497.168 203.413 503.143 210.487 509.787L166.533 510.009L148.435 455.09C153.318 454.443 158.562 450.239 157.161 444.724C156.283 441.268 154.032 437.779 152.602 434.495C150.191 428.956 148.182 423.218 145.53 417.794C148.981 415.34 152.567 413.116 156.307 411.129L179.61 399.296C199.236 388.158 174.055 378.196 164.25 372.982L147.624 364.368C151.764 360.809 158.539 356.093 160.296 350.739C160.942 348.768 160.486 345.953 161.486 344.252L165.18 337.945L166.97 334.56L166.985 334.561C167.515 333.677 167.919 332.773 168.329 331.83L168.756 331.731C169.87 331.667 171.504 331.474 172.48 330.939L175.25 329.939C175.546 329.718 175.411 329.77 175.719 329.693L179.125 328.75C179.891 328.415 179.138 328.548 179.812 328.438L180.25 328.377C180.899 328.13 181.556 327.877 182.25 327.877L183.125 327.75C184.635 327.103 186.642 326.999 188 326L188.251 325.751C188.623 325.508 188.938 325.476 189.302 325.141L190.202 324.75C190.448 320.433 189.653 316.732 189.939 313L190 312.5C189.47 311.75 189.836 311.151 189.675 310.353L189.375 308.5C188.561 304.355 187.901 304.236 184.194 305.773C180.819 307.172 171.878 312.472 168.937 312.852L168.714 312.874Z" fill="#8AC6E8"/>
<path d="M302.906 509.907C307.937 503.032 306.266 494.299 306.742 486.375L320.444 323.336C320.983 316.477 320.968 309.126 323.768 302.741L359.199 318.69L360.728 318.798C368.324 320.608 375.589 323.264 382.945 325.836L435.5 343.256C445.161 346.341 455.438 349.002 464.279 354.058C480.418 363.287 490.481 378.515 493.243 396.75C494.805 407.061 493.871 417.893 493.853 428.303L493.867 497.586C493.892 502.673 493.545 505.507 497.625 509.166L497.969 509.486C498.571 509.902 499.816 509.899 500.537 509.971L441.446 509.893L435.543 509.801L344.349 510.002L302.906 509.907Z" fill="#4BAF32"/>
<path d="M359.199 318.69L360.728 318.798L358.878 326.532C358.54 324.025 359.038 321.219 359.199 318.69Z" fill="#8B4E3E"/>
<path d="M435.543 509.801C433.391 508.211 431.855 506.624 430.974 504L430.884 503.746C430.184 501.639 430.506 498.562 430.5 496.354L430.488 483.561C430.489 478.439 430.146 473.039 430.567 467.96C431.23 459.974 441.274 457.958 445.043 465L445.204 465.28C446.868 468.308 445.84 485.343 445.863 489.713L445.949 498.5C445.988 500.493 446.281 502.681 445.808 504.625L445.742 504.908C445.196 506.974 443.103 508.575 441.446 509.768L435.543 509.801Z" fill="black"/>
<path d="M302.906 509.907C307.937 503.032 306.266 494.299 306.742 486.375L320.444 323.336C320.983 316.477 320.968 309.126 323.768 302.741L359.199 318.69C359.038 321.219 358.54 324.025 358.878 326.532L359.034 332.973C359.042 334.494 358.914 335.777 359.489 337.222C365.341 339.105 369.08 347.078 372.691 351.556C375.059 354.493 386.301 363.951 384.83 368.068C382.807 373.729 356.689 386.105 350.932 389.479C352.08 390.63 354.199 391.448 355.632 392.314L368.25 400.02C375.007 404.083 386.367 407.972 382.919 417.802C380.758 423.965 377.832 429.985 375.336 436.031C372.71 442.394 370.616 454.861 362.464 454.468L362.187 454.446C361.83 458.027 361.178 460.775 360.087 464.249L348.003 501.773C347.097 504.481 344.831 507.321 344.349 509.988L302.906 509.907Z" fill="#8AC6E8"/>
<path d="M359.489 337.222C365.341 339.105 369.08 347.078 372.691 351.556C375.059 354.493 386.301 363.951 384.83 368.068C382.807 373.729 356.689 386.105 350.932 389.479C352.08 390.63 354.199 391.448 355.632 392.314L368.25 400.02C375.007 404.083 386.367 407.972 382.919 417.802C380.758 423.965 377.832 429.985 375.336 436.031C372.71 442.394 370.616 454.861 362.464 454.468L362.187 454.446L361.25 453.975C350.493 448.604 355.996 442.437 360.08 433.551L367.75 417.104L346.033 405.61C339.475 402.346 318.49 394.799 328.807 384.335C332.016 381.08 336.76 378.827 340.749 376.683L356.235 368.019C358.847 366.469 361.618 364.965 363.969 363.044C360.753 358.859 352.868 355.796 351.082 348.468C349.831 343.337 354.876 338.314 359.489 337.222Z" fill="black"/>
</svg>
