<svg width="80" height="82" viewBox="0 0 80 82" fill="none" xmlns="http://www.w3.org/2000/svg">
<path fill-rule="evenodd" clip-rule="evenodd" d="M40.5874 0.000320404C46.1455 0.0156767 51.8508 -0.107265 56.9427 2.12108C62.0439 4.35346 66.093 8.4054 69.6267 12.7087C73.0827 16.9173 75.6907 21.7245 77.31 26.9239C78.9198 32.093 78.8303 37.4858 79.0279 42.8961C79.2479 48.9185 81.3712 55.4481 78.5463 60.7714C75.7299 66.0789 68.9529 67.6766 64.0415 71.1376C59.1919 74.5551 55.3009 79.5957 49.5839 81.1811C43.8058 82.7834 37.6113 81.65 31.8268 80.0712C26.1893 78.5326 21.3248 75.295 16.4137 72.128C11.3095 68.8365 5.22635 66.2842 2.24325 60.9938C-0.73816 55.7064 0.221324 49.1838 0.0547927 43.116C-0.103078 37.3637 0.0155732 31.6984 1.2852 26.0858C2.62478 20.164 3.52723 13.6535 7.71413 9.25664C11.8957 4.86538 18.355 3.67408 24.1917 2.0306C29.5511 0.52152 35.0196 -0.0150625 40.5874 0.000320404Z" fill="#5544FF"/>
</svg>
