<svg width="80" height="78" viewBox="0 0 80 78" fill="none" xmlns="http://www.w3.org/2000/svg">
<path fill-rule="evenodd" clip-rule="evenodd" d="M39.4094 0.0269644C47.4735 -0.462951 53.9919 5.82768 60.6657 10.3808C67.569 15.0905 75.9087 18.9956 78.7385 26.8588C81.5965 34.8001 79.2176 43.8038 75.4036 51.3328C71.95 58.1503 64.9364 61.7707 58.7678 66.2821C52.5751 70.8111 47.0342 76.8065 39.4094 77.6571C31.3505 78.5561 22.9114 76.1179 16.6363 70.982C10.5391 65.9917 8.83278 57.8528 6.15753 50.4418C3.3777 42.7411 -2.02833 34.776 0.792031 27.0901C3.60156 19.4336 13.2714 17.5349 19.9502 12.8544C26.4719 8.28392 31.4603 0.509893 39.4094 0.0269644Z" fill="#5544FF"/>
</svg>
