<svg width="56" height="10" viewBox="0 0 56 10" fill="none" xmlns="http://www.w3.org/2000/svg">
<path d="M1.36393 6.49205L1.12393 4.94405L5.44393 0.600054H7.39993L1.36393 6.49205ZM0.12793 9.00006V0.600054H1.68793V9.00006H0.12793ZM5.63593 9.00006L2.45593 4.76405L3.55993 3.81605L7.53193 9.00006H5.63593Z" fill="black"/>
<path d="M12.1246 9.07205C11.4606 9.07205 10.8686 8.93205 10.3486 8.65205C9.82865 8.36405 9.41665 7.97205 9.11265 7.47605C8.81665 6.97205 8.66865 6.40405 8.66865 5.77205V0.588054H10.2406V5.66405C10.2406 6.04005 10.3246 6.37605 10.4926 6.67205C10.6686 6.96005 10.9006 7.19205 11.1886 7.36805C11.4766 7.54405 11.7886 7.63205 12.1246 7.63205C12.4926 7.63205 12.8246 7.54405 13.1206 7.36805C13.4166 7.19205 13.6486 6.96005 13.8166 6.67205C13.9926 6.37605 14.0806 6.04005 14.0806 5.66405V0.588054H15.5926V5.77205C15.5926 6.40405 15.4406 6.97205 15.1366 7.47605C14.8406 7.97205 14.4326 8.36405 13.9126 8.65205C13.3926 8.93205 12.7966 9.07205 12.1246 9.07205Z" fill="black"/>
<path d="M17.3449 9.00006V7.90805L22.0369 1.64405L22.4089 2.06405H17.6569V0.600054H23.8369V1.68005L19.1689 7.95605L18.7849 7.56005H23.9689V9.00006H17.3449Z" fill="black"/>
<path d="M25.7686 9.00006V0.600054H29.3446C29.8966 0.600054 30.3606 0.680054 30.7366 0.840055C31.1206 1.00005 31.4086 1.24005 31.6006 1.56005C31.8006 1.87205 31.9006 2.25205 31.9006 2.70005C31.9006 3.16405 31.7766 3.55605 31.5286 3.87605C31.2806 4.19605 30.9326 4.41605 30.4846 4.53605L30.4726 4.29605C30.8486 4.37605 31.1766 4.52005 31.4566 4.72806C31.7366 4.92805 31.9526 5.18005 32.1046 5.48405C32.2646 5.78005 32.3446 6.12005 32.3446 6.50406C32.3446 6.91206 32.2766 7.27205 32.1406 7.58405C32.0126 7.89605 31.8206 8.15605 31.5646 8.36405C31.3086 8.57205 31.0046 8.73206 30.6526 8.84406C30.3006 8.94806 29.9046 9.00006 29.4646 9.00006H25.7686ZM27.2926 7.59605H29.3926C29.6886 7.59605 29.9366 7.55205 30.1366 7.46405C30.3446 7.37605 30.5006 7.24805 30.6046 7.08005C30.7166 6.90405 30.7726 6.69605 30.7726 6.45605C30.7726 6.23205 30.7126 6.04005 30.5926 5.88005C30.4806 5.72005 30.3166 5.60005 30.1006 5.52005C29.8846 5.43205 29.6286 5.38805 29.3326 5.38805H27.2926V7.59605ZM27.2926 4.04405H29.2006C29.4326 4.04405 29.6326 4.00005 29.8006 3.91205C29.9766 3.82405 30.1126 3.70405 30.2086 3.55205C30.3046 3.40005 30.3526 3.22405 30.3526 3.02405C30.3526 2.70405 30.2446 2.45605 30.0286 2.28005C29.8126 2.09605 29.4966 2.00405 29.0806 2.00405H27.2926V4.04405Z" fill="black"/>
<path d="M33.0943 9.00006L36.3703 0.600054H37.8343L41.0863 9.00006H39.4663L37.6663 4.22405C37.6263 4.12805 37.5703 3.97605 37.4983 3.76805C37.4343 3.56005 37.3623 3.33605 37.2823 3.09605C37.2023 2.84805 37.1303 2.62005 37.0663 2.41205C37.0023 2.19605 36.9543 2.04005 36.9223 1.94405L37.2223 1.93205C37.1743 2.09205 37.1183 2.27205 37.0543 2.47205C36.9903 2.67205 36.9223 2.88005 36.8503 3.09605C36.7783 3.31205 36.7063 3.52005 36.6343 3.72005C36.5703 3.92005 36.5103 4.10005 36.4543 4.26005L34.6543 9.00006H33.0943ZM34.5823 7.08005L35.1223 5.72405H38.9503L39.5263 7.08005H34.5823Z" fill="black"/>
<path d="M45.0732 9.12006C44.5852 9.12006 44.1372 9.06005 43.7292 8.94005C43.3212 8.81205 42.9532 8.62405 42.6252 8.37605C42.2972 8.12805 42.0052 7.82805 41.7492 7.47605L42.7692 6.32405C43.1612 6.86805 43.5452 7.24406 43.9212 7.45205C44.2972 7.66005 44.7212 7.76405 45.1932 7.76405C45.4652 7.76405 45.7132 7.72405 45.9372 7.64405C46.1612 7.55605 46.3372 7.44005 46.4652 7.29605C46.5932 7.14405 46.6572 6.97205 46.6572 6.78006C46.6572 6.64406 46.6292 6.52005 46.5732 6.40805C46.5252 6.28805 46.4492 6.18405 46.3452 6.09605C46.2412 6.00005 46.1132 5.91206 45.9612 5.83206C45.8092 5.75205 45.6372 5.68405 45.4452 5.62805C45.2532 5.57205 45.0412 5.52005 44.8092 5.47205C44.3692 5.38405 43.9852 5.26805 43.6572 5.12405C43.3292 4.97205 43.0532 4.78805 42.8292 4.57205C42.6052 4.34805 42.4412 4.10005 42.3372 3.82805C42.2332 3.54805 42.1812 3.23205 42.1812 2.88005C42.1812 2.52805 42.2572 2.20405 42.4092 1.90805C42.5692 1.61205 42.7852 1.35605 43.0572 1.14005C43.3292 0.924054 43.6452 0.756054 44.0052 0.636055C44.3652 0.516055 44.7532 0.456055 45.1692 0.456055C45.6412 0.456055 46.0612 0.512055 46.4292 0.624055C46.8052 0.736055 47.1332 0.904055 47.4132 1.12805C47.7012 1.34405 47.9372 1.60805 48.1212 1.92005L47.0892 2.94005C46.9292 2.69205 46.7492 2.48805 46.5492 2.32805C46.3492 2.16005 46.1332 2.03605 45.9012 1.95605C45.6692 1.86805 45.4252 1.82405 45.1692 1.82405C44.8812 1.82405 44.6292 1.86405 44.4132 1.94405C44.2052 2.02405 44.0412 2.14005 43.9212 2.29205C43.8012 2.43605 43.7412 2.61205 43.7412 2.82005C43.7412 2.98005 43.7772 3.12405 43.8492 3.25205C43.9212 3.37205 44.0212 3.48005 44.1492 3.57605C44.2852 3.67205 44.4572 3.75605 44.6652 3.82805C44.8732 3.90005 45.1092 3.96405 45.3732 4.02005C45.8132 4.10805 46.2092 4.22805 46.5612 4.38005C46.9132 4.52405 47.2132 4.70005 47.4612 4.90805C47.7092 5.10805 47.8972 5.34005 48.0252 5.60405C48.1532 5.86005 48.2172 6.14805 48.2172 6.46805C48.2172 7.02005 48.0852 7.49605 47.8212 7.89605C47.5652 8.28805 47.2012 8.59205 46.7292 8.80805C46.2572 9.01605 45.7052 9.12006 45.0732 9.12006Z" fill="black"/>
<path d="M52.5966 9.12006C52.1086 9.12006 51.6606 9.06005 51.2526 8.94005C50.8446 8.81205 50.4766 8.62405 50.1486 8.37605C49.8206 8.12805 49.5286 7.82805 49.2726 7.47605L50.2926 6.32405C50.6846 6.86805 51.0686 7.24406 51.4446 7.45205C51.8206 7.66005 52.2446 7.76405 52.7166 7.76405C52.9886 7.76405 53.2366 7.72405 53.4606 7.64405C53.6846 7.55605 53.8606 7.44005 53.9886 7.29605C54.1166 7.14405 54.1806 6.97205 54.1806 6.78006C54.1806 6.64406 54.1526 6.52005 54.0966 6.40805C54.0486 6.28805 53.9726 6.18405 53.8686 6.09605C53.7646 6.00005 53.6366 5.91206 53.4846 5.83206C53.3326 5.75205 53.1606 5.68405 52.9686 5.62805C52.7766 5.57205 52.5646 5.52005 52.3326 5.47205C51.8926 5.38405 51.5086 5.26805 51.1806 5.12405C50.8526 4.97205 50.5766 4.78805 50.3526 4.57205C50.1286 4.34805 49.9646 4.10005 49.8606 3.82805C49.7566 3.54805 49.7046 3.23205 49.7046 2.88005C49.7046 2.52805 49.7806 2.20405 49.9326 1.90805C50.0926 1.61205 50.3086 1.35605 50.5806 1.14005C50.8526 0.924054 51.1686 0.756054 51.5286 0.636055C51.8886 0.516055 52.2766 0.456055 52.6926 0.456055C53.1646 0.456055 53.5846 0.512055 53.9526 0.624055C54.3286 0.736055 54.6566 0.904055 54.9366 1.12805C55.2246 1.34405 55.4606 1.60805 55.6446 1.92005L54.6126 2.94005C54.4526 2.69205 54.2726 2.48805 54.0726 2.32805C53.8726 2.16005 53.6566 2.03605 53.4246 1.95605C53.1926 1.86805 52.9486 1.82405 52.6926 1.82405C52.4046 1.82405 52.1526 1.86405 51.9366 1.94405C51.7286 2.02405 51.5646 2.14005 51.4446 2.29205C51.3246 2.43605 51.2646 2.61205 51.2646 2.82005C51.2646 2.98005 51.3006 3.12405 51.3726 3.25205C51.4446 3.37205 51.5446 3.48005 51.6726 3.57605C51.8086 3.67205 51.9806 3.75605 52.1886 3.82805C52.3966 3.90005 52.6326 3.96405 52.8966 4.02005C53.3366 4.10805 53.7326 4.22805 54.0846 4.38005C54.4366 4.52405 54.7366 4.70005 54.9846 4.90805C55.2326 5.10805 55.4206 5.34005 55.5486 5.60405C55.6766 5.86005 55.7406 6.14805 55.7406 6.46805C55.7406 7.02005 55.6086 7.49605 55.3446 7.89605C55.0886 8.28805 54.7246 8.59205 54.2526 8.80805C53.7806 9.01605 53.2286 9.12006 52.5966 9.12006Z" fill="black"/>
</svg>
