<svg width="512" height="512" viewBox="0 0 512 512" fill="none" xmlns="http://www.w3.org/2000/svg">
<g clip-path="url(#clip0_2506_42)">
<path d="M47.4375 512H0V0H512V512H435.819H47.4375ZM47.4375 512C48.2764 511.383 49.4064 510.849 50.457 510.754L50.9693 510.302C54.9394 509.797 61.5927 509.496 65.8355 509.336L86.8528 509.271L51.3696 508.468L32.2139 508.46C24.8709 508.442 15.8814 509.156 9.16917 505.837L8.90335 505.709C3.61457 503.053 4.05176 492.856 3.90281 487.878C3.04649 459.262 19.9962 468.127 39.5085 466.354L39.5143 231.712C39.5213 220.681 39.4208 210.848 52.1791 206.572C55.1372 205.581 59.4234 206.12 62.5775 206.138L152.832 206.141L152.857 96.1553C152.906 95.053 153.036 94.1205 153.548 93.125L153.724 92.7772C154.645 91.0694 156.432 89.6045 158 88.5048L233.999 37.4963C239.052 34.0056 243.741 30.0349 249.294 27.3377L249.249 15.0768C249.259 9.54807 248.792 3.29816 256.188 3.48654C262.594 3.64973 262.31 9.52343 262.344 14.1282L262.423 25.1777C262.446 27.9782 262.063 28.2749 264.826 29.5868C266.6 30.4291 268.278 32.0179 269.917 33.1298L341.569 81.6159L354.236 89.1992C360.688 93.3165 358.744 98.2671 358.75 105.278L358.748 466.427L417.594 466.491L417.595 454.765C415.317 454.46 413.002 454.478 410.75 453.999C359.307 443.041 362.435 344.535 400.281 316.37C408.757 310.063 419.368 305.694 430 308.248C476.352 319.38 485.953 400.993 461.746 435.787C455.666 444.526 447.086 451.322 436.426 453.315L430.618 454.159L430.628 466.397L489.634 466.469C492.185 466.467 495.174 466.157 497.625 466.853L497.951 466.938C507.282 469.447 507.405 477.44 507.395 485.146C507.389 490.043 507.586 495.197 506.545 500L506.48 500.326C504.873 507.95 494.576 508.342 488.274 508.413L476.157 508.464L415.079 508.453L365.246 508.476L355.614 508.574C352.986 509.194 350.108 509.24 347.412 509.282C349.596 509.581 351.818 509.423 354.015 509.372L399.956 509.286C402.121 509.3 404.197 509.711 406.346 509.795L419.58 510.042C423.301 510.153 426.243 510.576 429.914 509.777L433.375 509.75L433.5 510.623C432.908 510.623 432.177 510.45 431.75 510.873L430.973 510.988C431.283 511.033 431.568 511.188 431.875 511.25L432.75 511.189C433.438 511.146 436.495 511.378 435.819 512H512V0H0V512H47.4375Z" fill="black"/>
<path d="M253.845 508.535L355.614 508.495C352.986 509.194 350.108 509.24 347.412 509.276L253.834 508.823L253.845 508.535Z" fill="#FDCF5A"/>
<path d="M51.3691 508.476L253.845 508.46L253.834 508.823L86.8523 509.269L51.3691 508.476Z" fill="#FDCB73"/>
<path d="M253.834 508.49L347.412 509.269C349.596 509.581 351.818 509.423 354.015 509.372L399.956 509.286C402.121 509.3 404.197 509.711 406.346 509.795L419.58 510.042C423.301 510.153 426.243 510.576 429.914 509.777L433.375 509.75L433.5 510.623C432.908 510.623 432.177 510.45 431.75 510.873L430.973 510.988C431.283 511.033 431.568 511.188 431.875 511.25L432.75 511.189C433.438 511.146 436.495 511.378 435.819 512H47.4375C48.2764 511.383 49.4064 510.849 50.457 510.754L50.9693 510.373C54.9394 509.797 61.5927 509.496 65.8355 509.336L86.8528 509.271L253.834 508.49Z" fill="#E6CEC3"/>
<path d="M255.935 38.7476L321.237 83.7185C323.528 85.3381 325.646 87.2169 328.125 88.5489L255.61 88.5292L183.074 88.5665C186.078 86.3915 188.272 84.227 191.695 81.8849L246 45.4803C249.261 43.1467 252.385 40.6345 255.935 38.7476Z" fill="#77B7DB"/>
<path d="M277.143 389.859C290.212 389.279 290.234 391.697 290.272 403.802L290.295 466.346C289.623 466.701 288.071 466.508 287.262 466.508L235.875 466.484L222.804 466.454L222.727 404.135C222.744 393.197 223.048 389.926 236.245 389.886L277.143 389.859Z" fill="#77B7DB"/>
<path d="M422.451 320.842C463.102 317.699 479.599 425.078 436.383 440.513C434.507 441.183 432.552 441.244 430.71 441.855L430.293 425.869C430.371 420.336 431.476 412.587 423.985 411.64L423.665 411.603C416.138 412.488 417.377 419.782 417.46 425.447L417.455 442.791C416.206 442.896 414.592 442.401 413.391 442.046C380.658 432.371 381.318 381.926 389.722 355.5C394.636 340.046 404.795 323.097 422.451 320.842Z" fill="#4BAF32"/>
<path d="M462.528 479.978L494.123 479.847L493.79 494.964L49.1248 495.108L17.1774 495.063C16.6695 490.231 17.0487 485.022 17.0406 480.147C18.9242 479.591 21.8447 479.984 23.8864 479.977L462.528 479.978Z" fill="#4BAF32"/>
<path d="M91.568 219.356L153.602 219.324L153.639 466.502L119.932 466.486L119.941 429.599C122.29 428.202 128.545 430.612 132.814 426.749C135.654 424.18 135.184 420.329 132.625 417.769C130.187 415.33 126.807 415.731 123.657 415.729L116.312 415.743L106.897 415.667C104.585 415.6 101.724 415.239 99.4595 415.727C92.7976 417.162 91.109 429.92 106.759 429.569L106.71 466.576L52.6583 466.565L52.625 232.714C52.6462 216.573 52.395 219.383 67.8955 219.367L91.568 219.356Z" fill="#4BAF32"/>
<path d="M124.47 387.345C128.66 387.14 133.26 387.171 137.396 387.89C152.631 390.541 149.206 400.004 137.984 400.935L126.432 400.97C124.066 400.929 121.357 400.999 119.139 400.097L118.75 399.929C110.435 396.454 115.684 388.295 124.47 387.345Z" fill="black"/>
<path d="M125.921 327.607C130.255 327.319 154.346 328.99 147.741 337.772C145.94 340.165 140.537 340.343 137.777 340.685L128.094 341.368C124.372 341.498 120.191 341.736 117.125 339.219C109.649 333.082 119.069 328.186 125.921 327.607Z" fill="black"/>
<path d="M125.142 356.849C131.222 356.272 146.815 356.561 147.523 363.656C148.097 369.407 140.652 370.05 136.561 370.453L127.594 370.626C109.406 370.592 111.251 358.283 125.142 356.849Z" fill="black"/>
<path d="M127.368 298.105C131.471 298.092 155.538 298.967 147.535 308.426C145.261 311.115 139.361 311.091 136.06 311.435C109.494 315.538 110.215 299.184 127.368 298.105Z" fill="black"/>
<path d="M127.286 270.35C132.953 269.674 142.966 269.77 146.875 274.072C148.65 276.024 148.604 278.782 147.005 280.835C144.968 283.45 139.711 283.772 136.688 284.088L128.243 284.524C124.759 284.553 121.818 284.665 118.813 282.548C109.519 276.001 120.357 271.107 127.286 270.35Z" fill="black"/>
<path d="M124.659 245.088C130.427 244.643 138.785 244.478 144.264 245.949C155.248 248.899 153.677 254.957 143.314 257.425C137.73 258.317 130.209 259.471 124.596 258.133L124.125 258.014C114.777 255.718 115.622 247.031 122.625 245.404L124.659 245.088Z" fill="black"/>
<path d="M75.1611 298.069L99.9889 298.355C101.214 298.428 102.575 298.398 103.744 298.794L104.607 299.062C108.698 300.533 109.864 310.269 100.353 311.41L81.6619 311.759C79.4848 311.763 75.7207 312.248 73.7509 311.54C65.8245 308.692 69.0056 300.528 75.1611 298.069Z" fill="black"/>
<path d="M76.7574 386.6L99.8749 387.011C109.624 387.807 111.828 397.873 99.7018 399.938C94.7108 400.751 75.6183 401.341 71.6042 398.695C66.0594 395.041 68.444 387.285 76.7574 386.6Z" fill="black"/>
<path d="M74.347 327.502C83.3667 327.58 92.6663 327.11 101.625 328.116C108.006 328.833 111.146 339.33 100.81 340.445C99.3946 340.08 94.9496 340.883 93.1992 340.979L81.7968 341.396C79.4577 341.447 76.9359 341.666 74.641 341.15C65.7718 339.155 66.4322 331.142 74.347 327.502Z" fill="black"/>
<path d="M74.1776 356.52L92.4383 356.787C95.5859 356.803 98.9907 356.58 102.099 357.005L102.5 357.067C108.383 357.945 109.067 366.535 103.298 368.587L100.93 369.288C95.6636 370.177 80.3582 371.533 74.9708 370.106L73.8517 369.804C66.7219 367.672 66.2969 359.406 72.8854 356.943L74.1776 356.52Z" fill="black"/>
<path d="M79.9455 269.356L95.4171 269.268C100.872 269.333 110.864 270.172 107.658 278.61C106.668 281.217 103.934 282.287 101.318 282.546L96.4452 282.823L83.8555 282.867C80.7366 282.87 75.1671 283.529 72.3888 281.876L70.8518 280.911C64.9301 276.801 71.0839 270.124 76.2817 269.608L79.9455 269.356Z" fill="black"/>
<path d="M166.143 101.267L346.304 101.45L346.362 466.483L303.054 466.469L303.131 419.965L303.144 403.179C303.143 399.628 303.725 394.487 302.525 391.189C299.586 383.113 293.038 377.239 284.105 377.141L234.143 377.132C215.593 377.204 209.522 385.688 209.49 404.243L209.511 466.479L166.357 466.493L166.143 101.267Z" fill="#E6CEC3"/>
<path d="M241.614 121.324L267.442 121.315C277.493 121.344 278.308 132.283 269.943 134.294L252.427 134.732C248.821 134.731 243.095 135.447 239.862 133.898C233.299 130.754 235.41 123 241.614 121.324Z" fill="black"/>
<path d="M241.746 312.08L268.8 312.284C277.973 312.458 278.725 323.149 270.017 324.935L269.786 325.047C265.655 325.719 241.08 326.181 238.726 324.369L238.513 324.195C233.214 320.107 235.48 312.914 241.746 312.08Z" fill="black"/>
<path d="M240.868 280.277L267.686 280.389C277.932 280.487 279.173 290.535 270.584 293.078C264.498 293.84 258.139 293.524 252.024 293.518L244.57 293.498C233.22 293.441 232.797 282.79 240.868 280.277Z" fill="black"/>
<path d="M240.795 248.538L267.449 248.521C268.79 248.524 270.528 248.413 271.746 249.056L272 249.201C276.562 251.69 277.509 258.98 272.125 260.967L270.304 261.441C267.024 262.112 241.66 262.219 239.617 261.354C233.35 258.702 235.04 250.853 240.795 248.538Z" fill="black"/>
<path d="M240.954 184.76L267.016 184.946C278.647 185.005 278.359 195.27 270.247 197.888C267.815 198.43 265.258 198.298 262.795 198.302L244.773 198.297C243.486 198.294 241.997 198.377 240.738 198.102C235.027 196.853 232.81 188.392 240.954 184.76Z" fill="black"/>
<path d="M242.014 152.85L267.215 153.242C279.902 153.306 276.907 165.336 269.289 166.25C264.633 166.828 246.182 167.153 241.358 166.384C232.96 165.044 233.859 154.25 242.014 152.85Z" fill="black"/>
<path d="M240.53 344.038C246.356 343.679 252.38 343.994 258.225 344.009L267.492 344.055C279.242 344.245 277.958 354.929 271.355 356.932C266.413 357.87 248.193 357.671 243.087 357.187C233.775 356.304 233.141 346.673 240.53 344.038Z" fill="black"/>
<path d="M190.001 280.324L206.029 280.345C210.053 280.357 214.681 279.966 218.625 280.659C225.708 281.904 225.911 292.343 217.061 293.225C211.178 293.876 194.581 294.171 188.609 293.495C180.615 292.591 181.66 281.904 190.001 280.324Z" fill="black"/>
<path d="M189.786 121.562C191.338 121.252 193.149 121.356 194.734 121.349L212.146 121.351C213.97 121.359 215.925 121.254 217.736 121.485C225.137 122.427 226.614 133.015 217.061 134.462C215.452 134.414 213.346 134.71 211.672 134.716L197.252 134.746C194.244 134.748 189.941 135.293 187.153 134.131C180.971 131.556 181.256 124.27 187.75 122.034L189.786 121.562Z" fill="black"/>
<path d="M191.102 343.835L215.547 344.054C217.176 344.073 219.227 343.929 220.618 344.897C226.633 349.087 224.342 355.826 216.535 357.211L198.737 357.309C195.731 357.3 191.652 357.771 188.801 356.92L186.75 356.234C180.442 353.362 182.724 344.956 191.102 343.835Z" fill="black"/>
<path d="M191.523 153.114L208.819 153.248C211.852 153.262 215.331 152.975 218.301 153.541C225.733 154.955 227.042 165.842 215.042 166.29C209.287 166.732 203.421 166.535 197.653 166.543C193.116 166.549 183.035 167.801 182.477 160.912C182.038 155.488 186.998 153.361 191.523 153.114Z" fill="black"/>
<path d="M191.648 248.344L210.088 248.51C215.361 248.533 225.981 247.295 223.657 256.793C223.352 258.041 222.271 260.276 221.046 260.828L219.946 261.185C218.568 261.586 217.012 261.598 215.586 261.703L198.293 261.848C194.767 261.853 189.892 262.477 186.641 261.135C180.023 258.405 182.66 249.257 191.648 248.344Z" fill="black"/>
<path d="M296.43 343.86L314.668 344.027C317.465 344.043 320.808 343.737 323.539 344.282C329.364 345.446 333.198 356.248 320.427 357.19L295.92 357.308C294.305 357.305 292.813 357.428 291.308 356.733C285.159 353.888 286.221 344.479 296.43 343.86Z" fill="black"/>
<path d="M241.315 216.281L261.034 216.665C263.989 216.671 267.029 216.543 269.974 216.717C275.829 217.062 279.367 228.141 270.06 229.697C266.406 230.294 242.088 230.754 239.844 229.744C233.298 226.797 234.999 218.533 241.315 216.281Z" fill="black"/>
<path d="M192.146 311.853C194.518 311.639 197.109 312.119 199.5 312.155L211.686 312.211C213.716 312.221 215.885 312.068 217.892 312.353C224.757 313.329 227.695 324.457 215.355 325.459L197.572 325.428C194.789 325.43 191.342 325.807 188.625 325.274C180.799 323.739 180.224 312.915 192.146 311.853Z" fill="black"/>
<path d="M189.732 216.558L209.462 216.663C212.516 216.674 216.103 216.329 219.09 216.873C224.935 217.938 226.439 228.852 217.311 229.718C211.793 230.479 195.275 230.853 189.343 230.16C179.963 229.065 181.799 218.228 189.732 216.558Z" fill="black"/>
<path d="M191.06 184.596L207.573 184.919C211.168 184.942 215.073 184.649 218.62 185.132L219 185.19C224.288 185.975 227.782 196.914 216.111 198.235L198.008 198.314C194.979 198.314 191.635 198.59 188.642 198.185C179.252 196.914 181.126 185.586 191.06 184.596Z" fill="black"/>
<path d="M293.554 121.306L320.596 121.275C330.82 121.282 331.869 132.323 322.785 134.221C320.798 134.316 318.467 134.657 316.425 134.688L300.581 134.732C297.903 134.733 294.075 135.196 291.555 134.408C285.914 132.646 284.923 122.971 293.554 121.306Z" fill="black"/>
<path d="M292.895 312.065L322.132 312.23C330.001 312.328 332.058 322.494 323.809 325.116C316.499 325.794 299.979 326.045 292.784 325.256C285.937 324.505 284.7 313.336 292.895 312.065Z" fill="black"/>
<path d="M291.544 280.293L321.352 280.381C329.757 280.488 332.525 290.137 324.537 293.123C318.537 293.797 312.357 293.523 306.334 293.529L296.876 293.52C295.035 293.513 292.759 293.715 291.06 292.921L290.75 292.766C286.566 290.701 285.634 283.02 290.125 280.777L291.544 280.293Z" fill="black"/>
<path d="M292.765 248.329L322.084 248.515C329.884 248.59 332.136 258.894 323.71 261.207C318.289 262.329 298.43 262.286 292.25 261.719C285.565 261.104 285.25 249.609 292.765 248.329Z" fill="black"/>
<path d="M293.41 216.578C297.288 216.635 323.037 216.226 324.497 216.943C330.306 219.798 331.476 227.79 324.017 229.464C319.06 230.676 313.184 230.138 308.088 230.149C302.454 230.162 288.802 232.576 287.561 225.824C286.66 220.918 288.419 217.255 293.41 216.578Z" fill="black"/>
<path d="M291.847 153.043L321.159 153.213C322.184 153.21 323.459 153.075 324.461 153.297C328.565 154.208 332.711 162.464 324.55 165.823C322.066 166.563 319.403 166.453 316.843 166.484L305.046 166.533C301.023 166.537 296.635 166.87 292.656 166.401C285.546 165.564 285.393 154.643 291.847 153.043Z" fill="black"/>
<path d="M293.323 184.819L313.772 184.919C316.9 184.924 320.355 184.605 323.428 185.021C330.801 186.022 331.215 196.583 323.812 197.749C316.856 198.571 299.072 199.048 292 198.149C286.183 197.41 284.009 186.394 293.323 184.819Z" fill="black"/>
<path d="M436.793 5.65055C457.305 3.13739 473.584 19.6424 478.24 38.6205C480.199 38.6512 482.431 38.4854 484.352 38.8626L486.875 39.2496C493.243 40.2739 500.293 44.0472 503.988 49.4535L505.398 51.6575C513.67 67.116 507.052 83.9363 489.559 88.0692C484.947 89.1587 479.275 88.5546 474.511 88.5537L449.184 88.535L403.31 88.5897C401.228 88.5931 398.789 88.8324 396.768 88.3375C369.509 81.6595 370.789 43.5182 397.25 35.5469C403.054 33.7986 401.445 36.2821 403.749 31.0002C409.71 17.33 420.844 5.92174 436.793 5.65055Z" fill="black"/>
<path d="M439.826 18.854L444.48 19.2932C468.151 23.3546 463.922 48.1304 470.49 50.4271C474.395 51.7923 479.455 50.6727 483.58 51.2938L485.849 51.7066C497.434 55.4922 498.921 70.9056 489.98 74.6295L489.714 74.7309C487.132 75.7433 484.171 75.4904 481.443 75.4953L445.812 75.5001L414.527 75.5296C410.577 75.5313 400.435 76.6764 397.305 74.6914L395.132 73.2209C389.675 68.8138 388.185 62.6103 390.803 56.2102C396.433 42.4448 410.784 51.6895 413.071 42.4998C416.59 28.3662 424.046 19.8702 439.826 18.854Z" fill="#8AC6E8"/>
<path d="M62.0863 4.61749C75.3314 3.44365 86.177 10.3252 92.1672 21.7068C92.9949 23.2795 93.6312 25.1905 94.6546 26.61L117.675 26.7057C124.642 27.5511 133.009 32.3208 137.302 37.8153C152.495 57.2611 142.146 82.246 118.599 85.8106C114.975 86.3592 110.98 86.0488 107.308 86.0476L86.4263 85.9993L36.2022 85.975C33.5269 85.9688 30.7162 86.0541 28.0743 85.5802L26.4997 85.2745C4.24084 80.8194 -4.04253 49.0586 13.1493 34.0464C19.2547 28.7151 28.2201 24.8918 36.4317 25.4907C39.3083 14.073 50.3413 5.20156 62.0863 4.61749Z" fill="black"/>
<path d="M62.362 18.3012L63.6247 18.2193C82.4581 17.6418 83.0717 37.6531 85.7842 39.1475C86.1885 39.3703 88.935 39.096 89.5264 39.0867L107.052 38.9169C119.438 38.8967 132.05 40.6153 131.898 57.1459C131.826 64.9798 126.239 71.673 118.625 73.4281C114.976 74.2692 110.429 73.8081 106.67 73.8023L86.2954 73.7543L37.0357 73.8246C34.5042 73.8654 31.6875 74.1749 29.2185 73.5232C11.4764 68.8399 12.215 40.4209 31.0106 39.1798C34.7548 38.9326 39.2321 40.1035 42.3408 37.5238C47.5564 33.1958 46.3291 26.5671 53.547 21.8885L53.9088 21.6568C56.5916 19.9181 59.2641 18.9916 62.362 18.3012Z" fill="#8AC6E8"/>
</g>
<defs>
<clipPath id="clip0_2506_42">
<rect width="512" height="512" fill="white"/>
</clipPath>
</defs>
</svg>
