<svg width="512" height="512" viewBox="0 0 512 512" fill="none" xmlns="http://www.w3.org/2000/svg">
<path d="M18.7923 496.112C18.5892 499.073 16.6155 501.807 14.7308 503.981L14.4941 504.25C13.1132 505.845 12.0116 506.489 10.0994 507.303C4.7544 505.899 1.99953 503.423 1.99664 498.212L1.99609 318.757C2.00076 304.71 1.78275 297.861 10.7293 285.5L11.6116 284.349C19.8058 275.05 30.2966 271.9 41.7183 268.291L93.0005 251.938C96.0545 250.998 99.6846 249.445 102.877 249.257L103.197 249.242C103.971 248.355 103.413 235.559 103.663 232.967L103.701 232.592C102.446 231.318 100.868 230.363 99.4453 229.283C83.1963 216.955 71.0374 195.2 70.7392 174.763C68.1588 174.296 65.3932 174.712 62.7726 174.398C37.8153 171.404 32.6334 140.856 51.6255 128.522C56.1905 125.558 55.2251 127.852 54.9861 121.85L54.8253 100.373C54.8024 93.0534 54.5385 85.6089 55.3628 78.3271C58.8601 47.4306 81.6041 22.0231 111.498 14.1729C114.704 13.3312 118.262 12.4283 121.574 12.2549L182.04 12.3686C196.691 13.97 211.94 22.4508 221.063 33.9747C233.516 49.705 235.751 62.608 235.748 82.1064L235.727 117.42C235.722 120.673 235.891 124.046 235.482 127.272L235.432 127.645C235.914 128.485 237.926 129.293 238.811 129.93C254.05 140.91 250.364 165.031 233.827 172.733C228.787 175.081 223.132 174.505 217.753 174.5C217.78 176.974 217.688 179.745 217.164 182.163L216.909 183.555C213.655 203.675 201.632 219.95 185.486 231.632L185.949 248.882C191.585 251.228 197.915 252.713 203.75 254.566L242.804 266.916C252.257 269.871 261.635 272.284 269.953 277.854C271.103 278.624 272.156 279.577 273.348 280.274C276.082 276.748 279.106 273.346 282.376 270.303L290.822 263.248C292.3 262.01 291.479 261.331 291.368 259.5L291.191 112.746C291.179 106.26 290.677 99.3994 291.822 93C296.262 68.1869 315.738 47.8938 340.62 43.4963C347.212 42.3312 354.298 42.8397 360.982 42.8423L415.615 42.8764C420.586 42.8831 426.061 42.4845 430.938 43.4323C454.017 47.9174 474.104 61.5773 480.947 85.1148C484.279 96.5762 483.515 108.432 483.517 120.224L483.534 257.5C483.551 267.273 482.271 264.328 488.473 270.835C500.868 283.838 509.35 299.508 509.968 317.639L510.01 381.475C510.009 384.31 510.331 387.627 509.728 390.39C510.303 393.736 509.988 397.465 509.99 400.851L510 492.699C508.828 493.409 507.587 493.558 506.316 494.002C505.123 494.419 496.704 498.374 496.311 498.294L495.875 498.156C495.82 498.912 495.82 499.681 495.55 500.396C492.743 509.774 483.349 507.54 475.771 507.547L60.3575 507.564C52.4652 507.576 41.271 509.362 42.3603 497.21L39.5005 497.776C35.6624 498.903 22.1361 497.796 18.7923 496.112Z" fill="black"/>
<path d="M334.858 370.625L335.183 370.535C340.964 369.483 343.137 378.988 339.91 382.739C338.834 383.428 335.989 384.686 334.852 383.625C334.514 380.419 333.201 373.578 334.858 370.625Z" fill="#E5CEC3"/>
<path d="M203.139 370.789L205.362 371.21C206.181 374.939 205.563 379.687 205.409 383.515C203.86 383.743 202.509 383.568 200.973 383.351C195.252 380.746 196.804 373.313 203.139 370.789Z" fill="#E5CEC3"/>
<path d="M218.556 141.244C227.703 141.549 236.058 146.184 228.909 155.223C225.803 157.796 222.305 157.551 218.481 157.281L218.556 141.244Z" fill="#C1806E"/>
<path d="M66.969 140.835C68.1793 140.786 69.2593 140.743 70.449 141.044C71.626 143.234 70.7903 154.405 70.703 157.546C68.0739 157.902 64.9569 157.85 62.3879 157.14C54.4196 153.541 55.6376 142.32 66.969 140.835Z" fill="#C1806E"/>
<path d="M452.975 140.483L455.717 140.656C466.26 141.265 471.901 154.481 463.506 161.03C460.046 163.189 456.98 164.074 453.004 164.809L452.975 140.483Z" fill="#E5CEC3"/>
<path d="M168.227 240.875L168.814 255.625C168.461 278.366 142.567 288.984 125.788 271.121L123.821 268.326C120.454 262.728 119.686 248.314 121.331 241.563C139.544 247.549 149.274 248.928 168.227 240.875Z" fill="#E5CEC3"/>
<path d="M466.067 178.125C466.377 178.361 466.288 179.1 466.287 179.428L465.812 194.335L466.4 255.6C455.675 250.313 438.819 249.253 426.588 249.942L426.19 249.966L420.407 249.483C419.849 247.639 419.83 245.596 419.711 243.68L419.272 233.52C419.888 232.464 421.477 231.689 422.5 231.013L427.098 227.705C440.656 217.239 450.656 199.954 452.811 182.957C457.554 182.2 461.767 180.203 466.067 178.125Z" fill="#4B2621"/>
<path d="M370.743 239.394C380.785 241.695 392.354 241.893 402.418 239.615C400.823 251.903 406.207 265.283 419.681 267.796L417.525 273C413.642 281.882 407.11 288.62 398.068 292.15C376.012 300.481 358.379 287.822 350.195 267.357L351.345 267.338C356.87 267.211 360.396 265.199 364.145 261.219C370.939 254.007 371.008 248.697 370.743 239.394Z" fill="#E5CEC3"/>
<path d="M18.7916 496.112L18.6475 395.639L57.5249 395.773L57.5809 490.041C50.5391 489.871 45.3227 490.108 42.3861 497.215L42.3596 497.21L39.4998 497.776C35.6617 498.903 22.1354 497.796 18.7916 496.112Z" fill="#E5CEC3"/>
<path d="M509.655 390.39C510.303 393.736 509.988 397.465 509.99 400.851L510 492.699C508.828 493.409 507.587 493.558 506.316 494.002C505.123 494.419 496.704 498.374 496.311 498.294L495.875 498.156C495.82 498.912 495.82 499.681 495.55 500.396C495.41 490.261 488.252 490.293 479.677 490.249L469.276 490.223C468.719 487.514 469.049 484.111 469.043 481.308L469.084 395.746L500.606 396.312C505.787 396.349 506.875 394.962 509.655 390.39Z" fill="#E5CEC3"/>
<path d="M316.916 432.594C323.703 434.599 331.282 435.106 337.828 437.707C354.746 444.43 357.254 458.333 357.261 473.906L357.249 490.253L338.498 490.244C338.513 486.761 338.887 482.808 338.349 479.385L338.284 479C336.773 469.004 321.41 464.819 321.372 483.255L321.385 490.171C319.002 490.675 315.868 490.269 313.369 490.267L218.684 490.232V482.894C218.679 480.826 218.76 478.831 218.182 476.823L218.087 476.507C213.556 466.641 202.132 469.136 201.707 481.979L201.647 490.276L183.55 490.228L183.492 471.636C183.49 468.005 183.191 464.039 183.817 460.469C186.633 444.395 201.977 436.608 217.014 434.915C223.892 434.14 222.72 433.258 226.436 437.024C249.65 460.551 296.566 459.185 316.916 432.594Z" fill="white"/>
<path d="M155.809 28.9906L168.362 28.9636C173.657 28.9548 178.5 28.8447 183.686 30.1018C202.271 34.607 215.014 48.859 218.231 67.3653C218.94 71.4424 218.652 75.9584 218.655 80.0951L218.638 115.59C218.636 118.721 218.94 122.306 218.172 125.353C217.191 123.538 217.05 121.238 216.756 119.232C213.972 100.254 207.375 91.6587 188.215 91.7123L137.625 91.7535L109.914 91.7532C95.351 91.7596 80.5094 90.9776 73.7067 107.757C71.7117 112.678 72.5721 117.177 71.8408 122C71.3607 116.926 71.7421 111.484 71.7454 106.375C71.7523 95.4436 70.9499 83.679 73.7448 72.9812C79.2824 51.7858 96.0098 34.3078 117.861 30.1698C124.135 28.9815 130.525 29.0365 136.88 29.0207L155.809 28.9906Z" fill="#C1806E"/>
<path d="M413.391 115.07C423.281 116.204 432.284 125.411 435.378 134.433C436.747 138.423 436.393 142.346 436.397 146.503L436.399 172.539C436.109 210.091 398.317 235.573 364.403 218.851L359.741 216.051C348.941 208.71 340.943 196.567 338.523 183.75C337.578 178.745 337.936 173.411 337.958 168.331L338.015 133.219C338.086 108.417 345.521 117.658 362.375 118.814C369.058 119.273 375.941 118.974 382.643 118.974L393.369 118.94C396.841 118.899 401.084 118.999 404.441 117.903L413.391 115.07Z" fill="#E5CEC3"/>
<path d="M406.803 139.312C419.211 137.971 421.939 156.27 410.946 159.686C397.552 161.718 395.758 143.626 406.803 139.312Z" fill="black"/>
<path d="M365.648 138.775C377.801 137.366 380.127 156.941 368.321 160.237C355.504 160.802 354.13 142.622 365.648 138.775Z" fill="black"/>
<path d="M396.932 181.316C407.181 180.379 410.944 193.97 398.701 199.69C391.604 203.005 382.703 203.284 375.385 200.593L375.232 200.521C367.267 196.65 362.721 186.736 371.686 182.469C375.482 180.663 378.838 182.195 382.202 184.065C388.074 187.329 391.494 182.713 396.932 181.316Z" fill="black"/>
<path d="M362.134 60.0083L412.422 60.0368C420.111 60.0485 428.066 60.0738 435.5 62.2677C458.7 69.115 466.84 88.0954 466.878 110.197L466.934 125.875C465.835 125.865 464.274 125.278 463.101 125.107L453.176 123.9C451.623 123.711 450.417 124.07 449.475 122.723L446.9 118.967C440.208 109.288 431.511 100.993 419.75 98.1779C410.535 95.9725 400.955 101.255 391.574 101.681L379.703 101.747C371.541 101.739 364.06 101.47 356.07 99.6718C345.848 97.3709 337.328 97.3839 329.375 105.283C320.02 114.576 321.354 127.439 321.346 139.501L321.339 161.375C321.327 168.532 320.868 176.059 321.574 183.164C323.253 200.085 333.055 216.984 346.226 227.708L351.01 231.413C352.154 232.244 353.091 232.458 353.921 233.72C354.005 238.987 354.386 244.73 352.555 249.723C338.161 251.45 323.678 248.147 308.703 253.081L308.425 115.431C308.421 109.822 307.958 103.761 308.682 98.2214C310.779 82.1877 321.315 67.5013 337.071 62.3464C345.085 59.7244 353.826 60.0076 362.134 60.0083Z" fill="#4B2621"/>
<path d="M265.574 309.774L278.938 309.764C283.355 309.763 287.772 309.645 292.087 310.774C304.531 314.029 316.36 327.984 317.196 340.686C317.402 343.81 317.261 347.036 317.255 350.169L317.248 385.499C317.244 390.594 317.624 396.107 316.489 401.097C312.052 420.616 293.765 434.96 274.03 436.396C252.028 439 227.188 422.71 223.018 400.25C221.968 394.591 222.255 388.824 222.26 383.094V347.237C222.262 344.201 222.026 340.944 222.544 337.947C224.994 323.78 236.487 313.168 250.5 310.577L251.5 310.391C256.004 309.524 260.984 309.818 265.574 309.774Z" fill="#E5CEC3"/>
<path d="M295.354 360.6C307.721 361.188 306.367 378.683 295.026 378.585C282.477 374.959 283.649 361.841 295.354 360.6Z" fill="black"/>
<path d="M241.726 360.302C254.349 359.707 255.444 375.039 244.599 378.232C232.71 379.597 230.602 362.619 241.726 360.302Z" fill="black"/>
<path d="M277.235 394.087C282.75 394.353 287.279 399.587 284.932 405.216C280.959 414.745 268.075 416.315 259.375 412.385L257.082 411.007C246.683 403.741 251.982 388.966 266.709 396.74C270.296 398.633 271.745 394.769 277.235 394.087Z" fill="black"/>
<path d="M97.8392 108.57C102.505 108.239 107.327 108.484 112.007 108.489L184.061 108.501C190.428 108.512 195.899 108.32 199.39 114.736L199.608 115.147C202.018 119.634 201.015 126.433 201.021 131.359L201.029 166.77C201.011 187.669 195.045 202.654 177.991 216.307C170.616 221.893 162.219 226.56 153.064 228.375C123.252 234.286 94.101 209.13 88.6606 180.727C87.4817 174.571 87.719 168.438 87.7157 162.206L87.7107 129.195C87.7171 120.662 87.3197 110.406 97.8392 108.57Z" fill="#E5CEC3"/>
<path d="M120.131 131.586C132.325 132.327 132.591 155.23 120.706 156.984C108.468 156.561 107.546 133.149 120.131 131.586Z" fill="black"/>
<path d="M166.923 132.316C181.675 131.414 180.532 154.543 170.062 156.982C157.596 157.558 154.755 135.445 166.923 132.316Z" fill="black"/>
<path d="M129.672 180.283C130.685 180.245 131.888 180.096 132.871 180.371L133.125 180.449C136.607 181.501 139.003 185.094 142.386 185.815C148.611 187.142 151.694 179.55 157.484 180.335C166.075 181.5 167.961 191.967 159.617 198.119L156.059 199.932C131.703 209.991 110.03 186.546 129.672 180.283Z" fill="black"/>
<path d="M328.966 267.35C332.703 267.044 332.717 270.665 334.263 274.245C341.964 292.077 352.746 305.511 372.875 310.217C403.866 317.462 430.187 297.509 437.096 267.465C452.382 267.882 465.919 272.916 476.831 283.778C494.448 301.314 493.306 320.445 493.307 343.024L493.298 378.564L469.058 378.498L469.076 325.592C469.198 320.008 469.679 312.786 462.551 311.32C458.466 310.479 453.221 313.292 452.478 317.618L452.42 318C451.883 321.291 452.165 324.905 452.161 328.246L452.16 408.875L452.096 490.337L374.557 490.273C374.334 489.274 374.46 488.075 374.461 487.043L374.483 468.313C374.472 440.463 356.532 423.385 330.009 417.145C332.101 411.764 332.473 407.259 332.728 401.573C338.554 400.965 344.054 400.311 348.935 396.74C367.037 383.497 359.862 356.29 336.206 352.682C335.97 352.646 334.482 352.364 334.451 352.314C334.244 351.983 334.385 341.077 334.217 339.465C331.633 314.685 310.186 294.653 285.845 291.505L286.107 291.18C297.43 277.179 311.187 269.256 328.966 267.35Z" fill="#8AC6E8"/>
<path d="M183.86 266.795L244.873 285.691C246.608 286.287 263.194 291.031 253.844 292.297L248.499 293.051C236.903 295.053 226.231 301.173 218.474 309.974C207.153 322.821 204.193 335.748 205.238 352.429C198.999 353.156 193.291 355.041 188.504 359.255C178.714 367.874 178.421 384.197 186.942 393.782C191.951 399.417 198.143 400.892 205.4 401.301C206.009 407.198 208.563 412.848 210.906 418.233C187.853 424.091 170.322 434.166 166.544 460.085C165.958 464.104 166.181 468.291 166.187 472.347L166.23 490.339L74.7083 490.226L74.5297 470.012L74.4731 349.872C74.4365 348.917 74.4266 347.873 73.9423 347.022L73.777 346.75C72.2627 344.068 69.7225 341.804 66.5 341.689C56.3535 341.325 57.4611 353.04 57.4791 359.511L57.4243 378.482L18.7275 378.569L18.7428 317.588C18.7868 293.26 28.3789 290.071 48.4055 284.321L104.901 267.011C118.491 312.132 178.746 301.602 183.86 266.795Z" fill="#4BAF32"/>
</svg>
